<svg height="112" viewBox="0 0 272 112" width="272" xmlns="http://www.w3.org/2000/svg" xmlns:xlink="http://www.w3.org/1999/xlink"><defs><path id="a" d="m47.0957049 109.899511h-3.0957049v-8.773901h2.395408c.7548409 0 1.3438698.097348 1.7671043.292045.4232344.194698.7461095.462664.9686349.803908s.3337863.735867.3337863 1.18388c0 .862531-.4646783 1.48011-1.3940489 1.852757.6675761.121424 1.1987928.385203 1.5936663.791346.3948734.406143.5923071.891833.5923071 1.457083 0 .448014-.1199873.84787-.3599657 1.199582-.2399783.351711-.5923048.638519-1.0569901.860433-.4646852.221913-1.0460786.332867-1.7441973.332867zm-.6610279-7.655966h-1.1257109v2.637823h.8704625c.6981187 0 1.1944301-.127703 1.488949-.383112.2945188-.25541.441776-.586182.441776-.992325 0-.841595-.5584866-1.262386-1.6754766-1.262386zm.0981724 3.755757h-1.2238833v2.782275h1.2893317c.7155717 0 1.2009751-.053384 1.4562248-.160154.2552496-.106769.4603189-.273201.615214-.499302.1548952-.2261.2323415-.468945.2323415-.728541 0-.267971-.0818095-.512909-.2454311-.734822-.1636216-.221914-.3959608-.387299-.6970245-.496162s-.7766499-.163294-1.4267731-.163294zm22.2860819 3.900209v-8.773901h2.2906909c.9250072 0 1.659112.219817 2.2023353.659456.5432239.43964.8148315 1.03419.8148315 1.783671 0 .510819-.1330771.952545-.3992347 1.325192-.2661576.372646-.6479355.651081-1.1453452.835311.2923374.184229.5781251.435448.8573728.753663.2792472.318215.6719334.87299 1.1780693 1.664341.3185166.498258.5737627.872992.7657454 1.124214l.4843173.628053h-1.5576695l-.3992348-.577808c-.0130896-.020935-.0392688-.056525-.0785377-.106769l-.2552489-.345429-.405779-.640614-.4385042-.684579c-.2705209-.360085-.5181313-.646893-.742838-.860432s-.4275949-.367411-.6086693-.461619c-.1810745-.094208-.4854062-.141312-.9130037-.141312h-.3403315v3.818562zm1.701656-7.70621h-.39269v2.769713h.4974075c.6632125 0 1.1180739-.05443 1.364597-.163293.2465232-.108863.4385031-.273202.5759453-.493022.1374422-.219819.2061622-.469992.2061622-.750523 0-.276345-.0763558-.526517-.2290691-.750523-.1527137-.224007-.3676-.382066-.6446658-.474181-.2770663-.092114-.7362905-.138171-1.3776871-.138171zm27.273243-1.193301c1.4136907 0 2.5906577.429166 3.5309357 1.287509.940279.858343 1.410411 1.934397 1.410411 3.228192 0 1.293796-.474495 2.364616-1.4235 3.212492-.949006.847875-2.1456069 1.271807-3.5898396 1.271807-1.3787847 0-2.5273909-.423932-3.4458533-1.271807-.918463-.847876-1.3776872-1.910322-1.3776872-3.18737 0-1.310544.4624966-2.394971 1.3875044-3.253314.9250072-.858343 2.0943384-1.287509 3.508029-1.287509zm.0523585 1.193301c-1.0471778 0-1.9078149.314023-2.5819356.942079s-1.0111765 1.429863-1.0111765 2.405443c0 .946272.3381462 1.733424 1.0144489 2.36148s1.5227586.94208 2.5393943.94208c1.0209986 0 1.872909-.320305 2.5557561-.960921.682848-.640618 1.024266-1.438238 1.024266-2.392883 0-.929523-.341418-1.711441-1.024266-2.345778-.6828471-.634337-1.5216679-.9515-2.5164872-.9515zm22.0766472-1.080251h7.637818v1.117934h-3.187333v7.668527h-1.315511v-7.668527h-3.134974zm32.554922.01256h1.308966v8.773901h-1.308966v-3.818562h-5.137693v3.818562h-1.308966v-8.773901h1.308966v3.793441h5.137693zm20.558246 0h5.183506v1.117935h-3.87454v2.675506h3.743643v1.124215h-3.743643v2.72575h3.998892v1.117934h-5.307858zm23.974649 8.773901v-8.773901h2.29069c.925008 0 1.659112.219817 2.202336.659456.543223.43964.814831 1.03419.814831 1.783671 0 .510819-.133077.952545-.399234 1.325192-.266158.372646-.647936.651081-1.145346.835311.292337.184229.578126.435448.857373.753663s.671933.87299 1.17807 1.664341c.318516.498258.573762.872992.765744 1.124214l.484318.628053h-1.55767l-.399235-.577808c-.013089-.020935-.039268-.056525-.078537-.106769l-.255249-.345429-.405779-.640614-.438504-.684579c-.270521-.360085-.518131-.646893-.742838-.860432s-.427595-.367411-.608669-.461619c-.181075-.094208-.485406-.141312-.913004-.141312h-.340331v3.818562zm1.701656-7.70621h-.39269v2.769713h.497407c.663213 0 1.118073-.05443 1.364597-.163293.246523-.108863.438503-.273202.575945-.493022.137442-.219819.206162-.469992.206162-.750523 0-.276345-.076356-.526517-.229069-.750523-.152713-.224007-.3676-.382066-.644666-.474181-.277066-.092114-.73629-.138171-1.377686-.138171zm25.853014 4.02582-.994814-.577809c-.623944-.364273-1.067897-.723306-1.331873-1.077111s-.395963-.760988-.395963-1.221563c0-.690862.249792-1.251917.749383-1.683182.499592-.431266 1.148614-.646895 1.947088-.646895.763567 0 1.463857.205162 2.10089.615492v1.42568c-.65885-.607121-1.367865-.910676-2.12707-.910676-.427597 0-.778833.095254-1.053717.285763-.274884.190511-.412324.434402-.412324.731682 0 .263784.100353.510816.301062.741103.200708.230288.525766.471039.97518.722261l1.001358.565248c1.11699.63643 1.675477 1.448704 1.675477 2.436845 0 .703423-.245429 1.274946-.736293 1.714585-.490865.439639-1.12898.659456-1.914363.659456-.903192 0-1.72565-.265873-2.467402-.797627v-1.595255c.706846.858343 1.524942 1.287509 2.454312 1.287509.410145 0 .751563-.109909 1.024266-.329728.272703-.21982.409052-.495114.409052-.82589 0-.535941-.401412-1.042565-1.204249-1.519888z"/><filter id="b" height="177.8%" width="103.8%" x="-1.9%" y="-27.8%"><feOffset dx="0" dy="1" in="SourceAlpha" result="shadowOffsetOuter1"/><feGaussianBlur in="shadowOffsetOuter1" result="shadowBlurOuter1" stdDeviation="1"/><feColorMatrix in="shadowBlurOuter1" type="matrix" values="0 0 0 0 0   0 0 0 0 0   0 0 0 0 0  0 0 0 0.379812047 0"/></filter><path id="c" d="m62 36h7.3935371v52h-7.3935371zm15.208377 51.925555v-51.925555h17.4117809c7.0238961 0 12.5813151 1.0608341 16.6724271 3.182534 4.091111 2.1217 7.344235 5.242165 9.75947 9.361489 2.415234 4.1193238 3.622832 8.6108083 3.622832 13.4745884 0 3.4741288-.665411 6.7993158-1.996254 9.9756624-1.330844 3.1763461-3.228499 5.9680146-5.693024 8.3750892-2.513816 2.4815202-5.434234 4.3550403-8.761342 5.6206157-1.946975.7692715-3.733729 1.2841789-5.360315 1.5447386s-4.7318411.3908377-9.3158574.3908377zm16.6354592-45.2999287h-9.2419221v38.6743021h9.4637283c3.6967872 0 6.5679156-.2543521 8.6134716-.7630638 2.045555-.5087117 3.752213-1.1538972 5.120025-1.9355763 1.367811-.7816785 2.618538-1.7432534 3.75222-2.8847526 3.647496-3.7222808 5.471217-8.4246913 5.471217-14.107373 0-5.5834213-1.873011-10.1369427-5.619088-13.6607017-1.380134-1.3152058-2.963568-2.394651-4.750348-3.238368-1.786781-.8437169-3.481116-1.4020506-5.083057-1.6750178-1.6019412-.2729673-4.1773309-.4094489-7.7262468-.4094489zm36.3538948-6.6256263h29.278408v6.6256263h-21.884871v15.8568362h21.145518v6.6628491h-21.145518v16.1546168h22.587257v6.6256266h-29.980794zm133.778408 0h7.023861v52h-6.358442l-34.527821-40.0143164v40.0143164h-6.949925v-52h5.988766l34.823561 40.34932zm-214.8048059 22.85h7.7081607c.0803376.8949101.1205062 1.8090639.1205062 2.7424632 0 7.619019-2.7012373 13.9249574-8.1037926 18.918004-5.4025553 4.9930465-12.2146405 7.4895328-20.4364603 7.4895328-7.8492298 0-14.3880865-2.4964863-19.61676644-7.4895328-5.22867991-4.9930466-7.84298066-11.2496717-7.84298066-18.7700625 0-7.7176471 2.63292997-14.1037198 7.89886891-19.1584089 5.26593889-5.0546892 11.92278079-7.5819958 19.97072519-7.5819958s14.7482544 2.5273066 20.101131 7.5819958c.1145307.1081506.2278361.2168882.3399194.3262102l-6.0596798 4.4925566c-3.842856-3.5823822-8.5372445-5.373547-14.0833001-5.373547-5.9614403 0-10.8609256 1.8492488-14.6986028 5.5478018-3.8376771 3.698553-5.75648698 8.4203016-5.75648698 14.1653873 0 5.5724865 1.92501958 10.207937 5.77511638 13.9064897 3.8500969 3.6985532 8.6688556 5.547802 14.4564205 5.547802 5.8124043 0 10.6622116-1.886234 14.5495675-5.6587577 2.7354704-2.6546655 4.5084728-5.76715 5.3190277-9.3375028h-19.7031448v-7.3378259h20.0630565c-.0004276-.003537-.0008561-.007074-.0012855-.01061zm155.0333899-26.9313515c-2.101991.1986477-5.289557 1.0687595-10.024594 3.0406122-9.90252 3.9176023-18.499689 11.1697095-20.993202 14.8723881-2.360242 3.2758102-3.540347 7.1903416-3.540347 11.7436688 0 5.6075194 1.908547 10.2721112 5.725699 13.9939164 3.817152 3.7218051 8.594678 5.5826796 14.332719 5.5826796 5.762669 0 10.570977-1.8980922 14.42507-5.6943334 3.854092-3.7962407 5.781109-8.5228619 5.781109-14.1800057 0-5.5082711-1.927017-10.1418488-5.781109-13.9008718-3.854093-3.7590229-8.588522-5.6385062-14.20343-5.6385062-.657948 0-1.30285.0230602-1.934704.0691807 2.74774-1.9339431 7.1301-4.5652211 11.76178-5.5401137 3.661297 1.2626365 6.930131 3.2723661 9.806533 6.0292009 5.307073 5.0864667 7.960569 11.4630635 7.960569 19.1299817 0 7.6669179-2.678123 14.0125001-8.034449 19.0369367-5.356326 5.0244367-12.110122 7.5366172-20.261588 7.5366172-7.782066 0-14.26497-2.5121805-19.44891-7.5366172-5.183939-5.0244366-7.775869-11.3203955-7.775869-18.8880652 0-7.3684002 2.34985-13.530597 7.049617-18.4867558.138092-.1759588.285752-.3340087.38984-.4380398 2.098705-2.0975556 3.105276-3.28165 4.251329-4.5241848 1.133766-1.2281586 2.194109-2.4302302 3.185527-3.6061521 1.016282-1.2048389 1.938816-2.3538668 2.795933-3.4755853.880015-1.1509803 1.673306-2.2465175 2.406256-3.3151604.753313-1.0976227 1.42596-2.138627 2.04319-3.1531441.635053-1.0433639 1.196464-2.0304772 1.706124-2.9898028.525941-.9889871.98444-1.920705 1.395814-2.8250267.425254-.9340068.789698-1.8100469 1.111516-2.6586279 2.611853-6.87464033 2.467208-11.95697278 1.819685-15.12173217-.167636-.8187643.86145-1.32778678 1.416205-.70110751.000448-.00002349 2.623214 2.96619039 2.623214 2.96619039.000016.00029772 24.596322 27.82112689 24.596322 27.82112689.555092.6274079-.081843 1.5805629-.876556 1.3112628-2.839276-.961977-7.366778-1.7064748-13.709293-.4599298z"/><filter id="d" height="108%" width="102.6%" x="-1.3%" y="-2.8%"><feOffset dx="0" dy="1" in="SourceAlpha" result="shadowOffsetOuter1"/><feGaussianBlur in="shadowOffsetOuter1" result="shadowBlurOuter1" stdDeviation="1"/><feColorMatrix in="shadowBlurOuter1" type="matrix" values="0 0 0 0 0   0 0 0 0 0   0 0 0 0 0  0 0 0 0.379812047 0"/></filter></defs><g fill="none" fill-rule="nonzero"><g><use fill="#000" filter="url(#b)" xlink:href="#a"/><use fill="#fff" fill-rule="evenodd" xlink:href="#a"/></g><g><use fill="#000" filter="url(#d)" xlink:href="#c"/><use fill="#fff" fill-rule="evenodd" xlink:href="#c"/></g></g></svg>